<svg xmlns="http://www.w3.org/2000/svg" width="117.966" height="20" viewBox="0 0 117.966 20">
    <g data-name="Lounge 복사 5">
        <path data-name="Lounge 복사" d="M96.36 19.361a4.46 4.46 0 0 1-1.942-1.875l2.261-1.3a3.253 3.253 0 0 0 4.666.783 2.415 2.415 0 0 0 .72-1.875l.061-.578a4.3 4.3 0 0 1-3.35 1.031 4.845 4.845 0 0 1-3.648-1.535 5.2 5.2 0 0 1-1.47-3.739 5.2 5.2 0 0 1 1.48-3.729A4.84 4.84 0 0 1 98.775 5a5.714 5.714 0 0 1 3.35.853v-.575l2.529.014V15.1a4.392 4.392 0 0 1-1.572 3.646A5.886 5.886 0 0 1 99.289 20a6.413 6.413 0 0 1-2.929-.639zm.76-11.093a2.688 2.688 0 0 0-.812 2.008 2.714 2.714 0 0 0 .812 2.029 3.087 3.087 0 0 0 4.131 0 2.715 2.715 0 0 0 .812-2.029 2.689 2.689 0 0 0-.812-2.008 3.086 3.086 0 0 0-4.131 0zm-43.9 8.286V1.941h3.03v11.894l-.035 2.8zm4.68-5.836a5.833 5.833 0 1 1 5.866 5.757h-.034a5.812 5.812 0 0 1-5.832-5.757zm2.9-.049a2.917 2.917 0 1 0 2.936-2.879h-.017a2.906 2.906 0 0 0-2.919 2.879zm50.331 5.72a5.8 5.8 0 1 1 6.747-4.738h-8.546a2.942 2.942 0 0 0 5.06.826l2.831 1.017a5.866 5.866 0 0 1-6.093 2.9zm-1.8-6.668h5.525A2.929 2.929 0 0 0 112.1 7.79a2.929 2.929 0 0 0-2.764 1.93zm-73.642.914a5.835 5.835 0 1 1 5.868 5.745h-.034a5.807 5.807 0 0 1-5.829-5.746zm2.9-.049a2.918 2.918 0 1 0 2.934-2.873h-.017a2.9 2.9 0 0 0-2.911 2.872zM0 10.635a5.806 5.806 0 0 1 5.8-5.813 6.085 6.085 0 0 1 .819.057l1.43 3.868a2.893 2.893 0 1 0 .685 1.853V1.934h2.935V10.6a5.806 5.806 0 0 1-5.8 5.778h-.035A5.807 5.807 0 0 1 0 10.635zm31.228 5.745V4.822h2.934v11.557zm-4.89 0V1.932h2.934v14.447zm-8.3-.086a5.792 5.792 0 1 1 6.749-4.729h-8.548a2.946 2.946 0 0 0 5.062.825l2.832 1.01a5.874 5.874 0 0 1-6.094 2.89zm-1.8-6.655h5.526A2.929 2.929 0 0 0 19 7.712a2.93 2.93 0 0 0-2.761 1.926zm56.1 5.109a4.306 4.306 0 0 1-1.1-3.131V5.291h2.652v5.995a2.113 2.113 0 0 0 .555 1.576 2.019 2.019 0 0 0 1.48.546 2.18 2.18 0 0 0 1.644-.639 2.629 2.629 0 0 0 .541-1.908V5.278l2.727.014-.037 10.575h-2.687v-.577a5.741 5.741 0 0 1-2.987.591 3.716 3.716 0 0 1-2.784-1.134zm10.169.845V5.291l2.71-.014v.578c.035-.011.494-.77 2.689-.77a4.148 4.148 0 0 1 4.226 4.428l-.026 6.078h-2.648l-.011-5.116c0-1.775-.989-2.5-2.113-2.5-1.22 0-2.113.8-2.113 2.5v5.2zM30.96 2.835a1.923 1.923 0 0 1 .82-2.609 1.96 1.96 0 0 1 2.638.8 1.923 1.923 0 0 1-.82 2.609 1.972 1.972 0 0 1-.916.226 1.946 1.946 0 0 1-1.722-1.026z" style="fill:#1e1e1e"/>
    </g>
</svg>
