<svg xmlns="http://www.w3.org/2000/svg" width="122" height="41.999" viewBox="0 0 122 41.999">
    <path d="M995.673 11330.636a15.031 15.031 0 1 1 15.113 14.732h-.09a14.926 14.926 0 0 1-15.023-14.732zm7.472-.124a7.515 7.515 0 1 0 7.558-7.368h-.042a7.464 7.464 0 0 0-7.515 7.368zm-99.415.127a14.918 14.918 0 0 1 14.939-14.9 15.56 15.56 0 0 1 2.111.145l3.682 9.914a7.587 7.587 0 0 0-5.8-2.651 7.433 7.433 0 1 0 7.563 7.41v-22.228h7.561v22.225a14.924 14.924 0 0 1-14.942 14.814h-.09a14.924 14.924 0 0 1-15.023-14.729zm80.432 14.729v-29.635h7.555v29.635zm-12.591 0v-37.045h7.555v37.045zm-21.376-.222a14.87 14.87 0 0 1-12.3-17.14 15.043 15.043 0 0 1 17.386-12.126 14.869 14.869 0 0 1 12.3 17.14h-22.02a7.607 7.607 0 0 0 13.038 2.116l7.293 2.6a15.158 15.158 0 0 1-15.7 7.409zm-4.635-17.062h14.24a7.546 7.546 0 0 0-7.12-4.94h-.007a7.543 7.543 0 0 0-7.112 4.94zm37.917-17.446a4.923 4.923 0 0 1 2.114-6.69 5.062 5.062 0 0 1 6.8 2.048 4.922 4.922 0 0 1-2.111 6.688 5.1 5.1 0 0 1-2.361.58 5.021 5.021 0 0 1-4.442-2.626z" transform="translate(-903.731 -11303.369)" style="fill:#fff"/>
</svg>
