<svg xmlns="http://www.w3.org/2000/svg" width="30" height="30" viewBox="0 0 30 30">
    <path data-name="사각형 4" style="fill:transparent" d="M0 0h30v30H0z"/>
    <path data-name="모양 7 복사" d="M809.241 7336.041a1.322 1.322 0 0 1-1.322-1.324V7312.1a1.321 1.321 0 0 1 1.322-1.322h5.324v2.646h-4v19.967h19.085v-19.967h-4v-2.646h5.325a1.321 1.321 0 0 1 1.322 1.322v22.614a1.322 1.322 0 0 1-1.322 1.324zm5.709-6.812a.933.933 0 1 1 0-1.867h10.312a.933.933 0 1 1 0 1.867zm0-4.831a.932.932 0 1 1 0-1.865h10.312a.932.932 0 1 1 0 1.865zm0-4.825a.935.935 0 1 1 0-1.869h10.308a.935.935 0 1 1 0 1.869zm1.318-5.273v-4.391h1.491a2.41 2.41 0 0 1 4.7 0h1.491v4.391z" transform="translate(-804.919 -7307.042)" style="fill:#fff"/>
</svg>
