<svg xmlns="http://www.w3.org/2000/svg" width="30" height="30" viewBox="0 0 30 30">
    <path data-name="사각형 3" style="fill:transparent" d="M0 0h30v30H0z"/>
    <g data-name="구성 요소 3 – 1">
        <g data-name="모양 9 복사">
            <path data-name="모양 9" d="M22.066 12.422a9.643 9.643 0 1 0-9.643 9.644 9.644 9.644 0 0 0 9.643-9.644zM9.5 16.761l-1.092-3.514H5.945v-1.672H7.89l-.849-2.74h1.751l1.5 4.852L11.624 9.4h1.6l1.328 4.288 1.5-4.852H17.8l-.849 2.74H18.9v1.672h-2.463l-1.088 3.514h-1.6l-1.328-4.288-1.328 4.288z" transform="translate(-1.779 -1.779)" style="fill:#fff"/>
        </g>
        <g data-name="패스 1" style="fill:none">
            <path d="M15.148 1a9.7 9.7 0 0 1 2.189 1.322 10.563 10.563 0 0 1 4.182 8.488 10.7 10.7 0 0 1-10.7 10.7c-4.363 0-7.871-2.934-9.647-6.929C3.677 15.837 16.465 14.938 15.148 1z" style="stroke:none" transform="translate(7.329 7.544)"/>
            <path d="M17.153 4.811a15.73 15.73 0 0 1-.565 2.948c-.56 1.884-1.477 3.537-2.729 4.912-2.85 3.133-6.593 4.008-8.797 4.241.363.383.75.73 1.16 1.037 1.386 1.04 2.932 1.566 4.594 1.566 4.799 0 8.703-3.904 8.703-8.703 0-2.26-.883-4.453-2.366-6m-2.005-3.81c.551.196 1.256.638 2.189 1.321 2.451 1.787 4.182 4.936 4.182 8.489 0 5.911-4.792 10.703-10.703 10.703-4.363 0-7.872-2.934-9.647-6.929 2.508 1.251 15.296.352 13.98-13.585z" style="fill:#fff;stroke:none" transform="translate(7.329 7.544)"/>
        </g>
    </g>
</svg>
