<svg xmlns="http://www.w3.org/2000/svg" width="30" height="30" viewBox="0 0 30 30">
    <defs>
        <clipPath id="dd106mtaoa">
            <path data-name="사각형 1" style="fill:#fff" d="M0 0h28v26.357H0z"/>
        </clipPath>
    </defs>
    <g data-name="그룹 6">
        <g data-name="그룹 5" transform="translate(1 2)" style="clip-path:url(#dd106mtaoa)">
            <path data-name="패스 2" d="M21.095 20.389h6.942a5.052 5.052 0 0 0 4.876-5.072 6.439 6.439 0 0 0 5.96-6.617 6.439 6.439 0 0 0-5.953-6.611V0H16.211v15.157a5.067 5.067 0 0 0 4.884 5.232M36.25 8.7a3.717 3.717 0 0 1-3.33 3.8V4.9a3.718 3.718 0 0 1 3.33 3.8" transform="translate(-10.873)" style="fill:#fff"/>
            <path data-name="패스 3" d="M3.945 66.958h19.494a4.094 4.094 0 0 0 3.946-4.227H0a4.093 4.093 0 0 0 3.945 4.227" transform="translate(0 -40.601)" style="fill:#fff"/>
        </g>
    </g>
    <path data-name="사각형 4" style="fill:transparent" d="M0 0h30v30H0z"/>
</svg>
