<svg xmlns="http://www.w3.org/2000/svg" width="30" height="30" viewBox="0 0 30 30">
    <path data-name="사각형 6" style="fill:transparent" d="M0 0h30v30H0z"/>
    <path data-name="모양 13 복사" d="M1368.657 7334.356a2.643 2.643 0 0 1-2.646-2.64V7314l9.368 7.4c-.017.019-.036.033-.052.053l-5.535 6.833a1.152 1.152 0 0 0 1.793 1.447l5.535-6.834c.021-.026.034-.053.053-.081l2.836 2.24 2.838-2.24c.019.028.033.055.053.081l5.535 6.834a1.152 1.152 0 0 0 1.793-1.447l-5.535-6.833c-.016-.021-.034-.034-.052-.053l9.368-7.4v17.715a2.643 2.643 0 0 1-2.645 2.64zm-2.352-23.058h27.412l-13.707 10.824z" transform="translate(-1365.012 -7308.299)" style="fill:#fff"/>
</svg>
