<svg xmlns="http://www.w3.org/2000/svg" width="169.488" height="28.735" viewBox="0 0 169.488 28.735">
    <g data-name="Lounge 복사 5">
        <path data-name="Lounge 복사" d="M138.457 30.357a6.407 6.407 0 0 1-2.791-2.693l3.248-1.865a4.674 4.674 0 0 0 6.7 1.125 3.469 3.469 0 0 0 1.034-2.693l.087-.83c-1.2 1.236-2.785 1.482-4.813 1.482a6.961 6.961 0 0 1-5.241-2.205 7.476 7.476 0 0 1-2.111-5.372 7.465 7.465 0 0 1 2.126-5.357 6.954 6.954 0 0 1 5.227-2.22 8.209 8.209 0 0 1 4.813 1.225v-.83l3.633.02V24.23a6.31 6.31 0 0 1-2.259 5.239 8.457 8.457 0 0 1-5.448 1.805 9.214 9.214 0 0 1-4.205-.917zm1.093-15.938a3.862 3.862 0 0 0-1.167 2.886 3.9 3.9 0 0 0 1.167 2.915 4.435 4.435 0 0 0 5.936 0 3.9 3.9 0 0 0 1.167-2.915 3.864 3.864 0 0 0-1.167-2.886 4.434 4.434 0 0 0-5.936 0zM76.477 26.324v-21h4.352v17.093l-.051 4.026zm6.723-8.386a8.381 8.381 0 1 1 8.428 8.271h-.049a8.35 8.35 0 0 1-8.379-8.271zm4.166-.071a4.19 4.19 0 1 0 4.214-4.136h-.024a4.175 4.175 0 0 0-4.186 4.137zm72.313 8.218a8.337 8.337 0 1 1 9.694-6.808H157.1a4.227 4.227 0 0 0 7.27 1.187l4.068 1.461a8.428 8.428 0 0 1-8.754 4.16zM157.1 16.5h7.938a4.208 4.208 0 0 0-3.969-2.773A4.208 4.208 0 0 0 157.1 16.5zM51.3 17.814a8.383 8.383 0 1 1 8.43 8.255h-.049a8.343 8.343 0 0 1-8.387-8.251zm4.167-.071a4.192 4.192 0 1 0 4.215-4.128h-.025a4.172 4.172 0 0 0-4.195 4.133zm-55.45.071a8.342 8.342 0 0 1 8.328-8.346 8.743 8.743 0 0 1 1.177.082l2.053 5.556a4.156 4.156 0 1 0 .985 2.664V5.318h4.217v12.453a8.342 8.342 0 0 1-8.334 8.3h-.05a8.344 8.344 0 0 1-8.382-8.252zm44.867 8.254V9.467H49.1v16.605zm-7.026 0V5.316h4.216v20.756zm-11.924-.124a8.321 8.321 0 1 1 9.7-6.794H23.343a4.233 4.233 0 0 0 7.272 1.185l4.069 1.465a8.44 8.44 0 0 1-8.756 4.152zm-2.585-9.561h7.94a4.208 4.208 0 0 0-3.97-2.767 4.21 4.21 0 0 0-3.976 2.771zm80.6 7.34a6.187 6.187 0 0 1-1.58-4.5v-9.081h3.81v8.613a3.035 3.035 0 0 0 .8 2.264 2.9 2.9 0 0 0 2.126.784 3.132 3.132 0 0 0 2.362-.917 3.777 3.777 0 0 0 .777-2.742v-8.022l3.918.02-.062 15.194h-3.86v-.83a8.248 8.248 0 0 1-4.291.849 5.339 5.339 0 0 1-4.001-1.628zm14.611 1.214v-14.8l3.894-.02v.83c.05-.015.71-1.107 3.864-1.107 3.648 0 6.071 2.705 6.071 6.362l-.038 8.733h-3.81l-.016-7.35c0-2.55-1.421-3.6-3.036-3.6-1.753 0-3.036 1.149-3.036 3.6v7.468zM44.492 6.612a2.762 2.762 0 0 1 1.178-3.748 2.816 2.816 0 0 1 3.791 1.146 2.763 2.763 0 0 1-1.178 3.748 2.834 2.834 0 0 1-1.316.325 2.8 2.8 0 0 1-2.475-1.471z" style="fill:#fff" transform="translate(-.011 -2.539)"/>
    </g>
</svg>
